<!-- icon666.com - MILLIONS OF FREE VECTOR ICONS --><svg id="Capa_1" enable-background="new 0 0 611.806 611.806" viewBox="0 0 611.806 611.806" xmlns="http://www.w3.org/2000/svg"><g><g id="Layer_2_24_"><g id="Find_1_"><path d="m314.565 204.156c-14.071 0-25.478-11.407-25.478-25.478-.302-23.321-19.126-42.156-42.447-42.472-14.071 0-25.478-11.407-25.478-25.478s11.407-25.478 25.478-25.478c51.566.07 93.347 41.862 93.403 93.428 0 14.071-11.407 25.478-25.478 25.478z"></path><path d="m178.69 340.031c-51.56-.07-93.344-41.843-93.428-93.403 0-14.071 11.407-25.478 25.478-25.478s25.478 11.407 25.478 25.478c.316 23.32 19.151 42.145 42.472 42.447 14.071 0 25.478 11.407 25.478 25.478s-11.407 25.478-25.478 25.478z"></path><path d="m212.652 424.975c-117.353.088-212.558-94.975-212.646-212.329s94.976-212.558 212.329-212.646 212.559 94.975 212.646 212.329c.034 46.216-15 91.182-42.823 128.084-12.02 16.123-26.387 30.353-42.625 42.217-36.488 27.68-81.082 42.562-126.881 42.345zm0-373.688c-89.12 1.12-160.458 74.274-159.338 163.394 1.1 87.54 71.798 158.238 159.338 159.338 34.79.141 68.653-11.206 96.333-32.281 12.294-8.912 23.169-19.632 32.255-31.797 53.794-70.974 39.867-172.118-31.106-225.912-28.05-21.26-62.285-32.759-97.482-32.742z"></path><path d="m548.964 611.806c-6.744-.001-13.213-2.677-17.988-7.44l-224.59-224.208c-9.954-9.946-9.961-26.078-.015-36.031.901-.902 1.868-1.735 2.894-2.491 12.18-8.881 22.958-19.539 31.975-31.618 8.339-11.334 24.288-13.761 35.621-5.421 1.028.757 1.998 1.589 2.902 2.491l224.564 223.825c9.955 9.944 9.964 26.076.02 36.031-.007.007-.013.013-.02.02l-37.351 37.376c-4.776 4.78-11.256 7.465-18.012 7.466zm-187.035-248.208 187.035 186.704 1.299-1.325-187.162-186.551c-.382.408-.765.79-1.172 1.172z"></path></g></g></g></svg>